<?xml version="1.0" encoding="UTF-8"?>
<svg id="Calque_1" data-name="Calque 1" xmlns="http://www.w3.org/2000/svg" viewBox="0 0 808.85 285.5">
  <defs>
    <style>
      .cls-1 {
        fill: #54a6dd;
      }

      .cls-1, .cls-2, .cls-3, .cls-4 {
        stroke-width: 0px;
      }

      .cls-2 {
        fill: #fdd38e;
      }

      .cls-5 {
        fill: #fbbb44;
      }

      .cls-5, .cls-6 {
        stroke: #1d1d1b;
        stroke-miterlimit: 10;
        stroke-width: 5.81px;
      }

      .cls-3 {
        fill: #e39e3d;
        opacity: .43;
      }

      .cls-6 {
        fill: #75bde9;
      }

      .cls-4 {
        fill: #afd9ef;
      }
    </style>
  </defs>
  <g>
    <path class="cls-4" d="M745.21,101.41c3.42-.89,4.99-4.96,5.23-5.6,2-5.47-1.2-11.58-5.11-14.3-.81-.56-3.12-2.12-6.24-1.87-.84.07-3.63.29-5.31,2.45-2.13,2.73-1.03,6.71-.59,8.31,1.56,5.66,6.95,12.33,12.03,11.01Z"/>
    <path class="cls-5" d="M590.03,103.48c-7.7,2.65-9.98,14.88-11.23,23.39-2.99,20.36-14.6,99.24,11.89,108.56,8.05,2.84,18.49-1.15,23.75-7.26,6.53-7.58,4.94-18.27,3.96-27.05-6.22-55.44,7.28-74.04-9.18-89.95-1.19-1.15-11.07-10.48-19.19-7.69Z"/>
    <path class="cls-3" d="M582.42,163.29c8.12-1.7,20.95,15.26,22.93,32,1.88,15.92-5.74,34.44-14.02,34.97-7.64.48-14.07-14.48-15.01-16.66-8.78-20.44-3.38-48.33,6.1-50.31Z"/>
    <path class="cls-5" d="M529.99,91.94c8.96,2.14,8.85,10.58,18.8,15.34.95.45,10.44,4.83,19.3.99,11.52-4.99,13.72-20.27,13.86-21.28,2.55-19.6-15.94-40.89-37.11-48-3.14-1.06-22.13-7.09-41.57,2.97-24.77,12.83-28.71,40.65-29.19,44.53-3.36,26.99,12.75,55.28,34.14,67.79,19.31,11.29,38.45,7.1,44.53,21.28,2.57,5.98,2.52,14.52-1.48,17.32-5.38,3.76-16.37-3.94-17.81-4.95-10.51-7.36-9.73-14.83-16.33-17.32-8.89-3.36-23.72,5.14-28.7,16.33-8.06,18.11,8.15,46.63,31.67,56.41,19.41,8.07,42.52,2.84,56.9-10.89,20.27-19.34,21.32-53.72,7.92-72.74-17.94-25.46-56.43-15.87-67.79-43.05-.8-1.91-6.44-15.41-.49-21.77,3.2-3.42,9.03-4,13.36-2.97Z"/>
    <path class="cls-5" d="M195.63,100.28c-27.3-2.91-58.88,11.13-71.75,37.11-10.54,21.28-4.52,42.46.99,61.85,5.81,20.46,16.15,56.84,48.49,67.79,26.38,8.93,50.78-4.69,55.42-7.42,36.06-21.2,37.54-65.44,37.61-69.28.68-39.83-28.04-85.51-70.76-90.06ZM195.14,212.11c-13.9,3.07-26.68-6.51-31.17-17.81-5.88-14.77,1.91-33.69,16.33-38.1,15.91-4.87,34.46,9.61,35.63,26.72.82,12.01-6.87,26.13-20.78,29.19Z"/>
    <path class="cls-3" d="M498.34,181.2c5.05-.5,10.78,13.46,12.74,23.46,2.26,11.5.25,21.36-1.48,27.24-3.09-2.03-16.86-11.52-18.56-27.75-1.07-10.22,2.72-22.5,7.3-22.96Z"/>
    <path class="cls-3" d="M122.73,158.51c-.25,2.86-.47,7.1-.16,12.21.91,15.41,5.85,26.75,10.39,36.45,15.2,32.48,22.79,48.73,34.23,54.68,11.94,6.21,27.06,6.99,29.94,2.06,2.44-4.18-5.96-9.01-12.25-26.93-3.55-10.13-2.96-14.53-7.92-20.41-5.48-6.5-12.55-8.63-15.13-9.57-10.06-3.64-23.66-14.9-39.09-48.49Z"/>
    <path class="cls-5" d="M77.37,108.69c12.93-9.42,27.28,7.31,51.46-.49,19.68-6.35,38.14-26.44,39.59-49.98,1.25-20.37-10.24-43.23-27.71-50.97C104.25-8.89,34.72,37.75,12.55,99.29c-22.04,61.16,2.31,138.11,53.44,167.25,22.36,12.74,66.15,25.63,88.57,2.47,17.36-17.92,18.1-53.49,1.48-72.74-10.57-12.24-26.41-15.85-30.68-16.82-22.12-5.04-30.86,5.43-42.06-.49-19.34-10.24-23.52-57.45-5.94-70.27Z"/>
    <path class="cls-6" d="M239.42,17.65c-6.96.22-22.62.73-32.66,12.87-8.45,10.21-12.12,27.67-4.45,35.13,3.09,3.01,8.56,4.9,13.11,3.46,5.86-1.85,5.74-7.78,15.34-18.31,3.97-4.36,8.43-9.14,12.25-8.04,3.25.93,4.48,5.69,4.58,6.06,2.63,10.65-12.62,16.57-17.81,35.38-1.19,4.31-3.96,14.33,1.24,20.29,4.77,5.48,13.75,4.62,18.06,4.21,20.67-1.98,41.24-19.9,39.59-33.65-.26-2.19-1.34-6.34-4.7-9.4-5.03-4.57-12.01-3.82-12.87-3.71-13.71,1.7-22.03,21.43-22.27,21.28-.07-.05.98-2.81,9.26-14.43,9.93-13.93,11.98-14.94,13.37-19.96,1.87-6.73,1.4-16.45-4.33-23.26-7.31-8.68-19.45-8.18-27.71-7.92Z"/>
    <path class="cls-5" d="M449.33,97.87c-2.54,1.11-12.99,6.6-13.86,41.07-1.14,45.53,14.98,107.5,36.62,107.87,12.52.22,21.63-20.3,22.27-21.77,7.57-17.55-1.8-26.61-11.38-71.75-6.8-32.06-6.68-49.21-19.3-54.93-.7-.32-7.75-3.39-14.35-.49Z"/>
    <path class="cls-3" d="M459.37,194.3c3.69-2.55,9.01-3.58,13.61-1.98,8.37,2.92,10.76,13.3,11.63,17.07,3.05,13.22-1.09,31.48-10.14,33.4-7.17,1.52-15.13-7.7-18.56-14.1-5.95-11.12-5.81-27.97,3.46-34.39Z"/>
    <path class="cls-5" d="M613.76,43.62c-14.08-.56-26.36,13.01-24.25,27.22,1.85,12.44,14.24,22.05,27.22,19.79,11.59-2.01,20.01-12.86,19.3-24.74-.73-12.21-10.88-21.81-22.27-22.27Z"/>
    <path class="cls-5" d="M376.33,18.21c-11.01,5.25-13.67,19.52-14.82,27.22-6.91,46.1,6.19,83.05,3.18,131.62-2.5,40.35-14.15,56.89-.88,70.19,14.88,14.92,45.85,10.5,56.46,8.98,15.04-2.15,33.02-4.71,43.11-18.96,12.24-17.28,8.01-44.89-5.53-51.8-15.91-8.12-39.13,15.13-52.4,5.94-6.11-4.23-6.43-12.8-6.5-19.35-.45-42.16,8.46-102.55,4.38-135.04-.73-5.79-2.43-15.22-9.82-19.11-5.35-2.82-12.32-2.01-17.17.3Z"/>
    <path class="cls-3" d="M375.7,213.06c6.13-3.71,16.44-.72,21.64,5.2,7.96,9.05-.77,19.7,5.86,27.22,8.36,9.48,31.86,3.78,46.03-4,6.22-3.42,10.82-7.33,13.94-10.39-1.03,2.1-2.84,5.27-5.86,8.41-6.96,7.27-15.53,9.39-26.14,11.88-6.54,1.53-11.45,1.98-21.28,2.89-.53.05-8.74.77-19.42.37-5.5-.21-11.34-.82-16.38-4.85-.48-.38-.85-.75-1.18-1.08-5.44-5.55-4.36-14.04-3.56-20.29.8-6.26,1.59-12.45,6.37-15.34Z"/>
    <path class="cls-5" d="M338.73,14.66c-5.74-4.43-14.62-5.75-21.27-2.63-12.75,5.98-13.92,26.7-15.59,42.79-5.02,48.46-20.97,95.17-30.18,143-5.64,29.27-8.14,41.1-.49,50.97,10.16,13.12,30.7,13.01,57.89,12.87,27.56-.14,46.49-.24,55.42-13.86,6.69-10.2,6.79-26.49-.99-36.62-14.22-18.51-43.32-1.52-56.9-16.33-13.66-14.89,5.02-43.82,18.31-129.15,3.12-20,5.74-41.85-6.2-51.05Z"/>
    <path class="cls-5" d="M451.95,36.94c-7.51,3.63-10.48,13.47-8.91,21.28,1.83,9.08,10.35,18.01,20.29,16.82,10.62-1.27,17.64-13.46,15.34-23.75-2.62-11.73-16.93-19.09-26.72-14.35Z"/>
    <path class="cls-5" d="M720.99,156.26c-3.55-22.28-19.72-51.66-46.02-55.42-31.3-4.48-60.79,29.62-65.81,61.85-6.05,38.83,22.25,82.25,52.45,83.63,33.27,1.51,66.05-48.14,59.38-90.06ZM661.61,197.33c-6.33-.07-12.49-3.83-15.83-8.91-10.34-15.72,4.32-47.22,19.3-48,9.66-.5,20.32,11.73,21.77,24.25,1.89,16.23-11.73,32.82-25.24,32.66Z"/>
    <path class="cls-5" d="M694.77,223.66c-9.26-33.83,2.25-67.02-3.46-109.71-2.34-17.5-6.87-31.34,1.48-37.94,6.21-4.9,19.07-5.45,22.76-.91,2.18,2.68.44,6.22,2.47,7.31,2.81,1.51,7.79-4.37,13.36-7.31,14.19-7.5,38.48.71,51.46,13.71,7.67,7.69,10.4,16.05,12.37,22.86,16.08,55.56,9.88,105.2-4.36,120.38-1.77,1.88-6.39,6.81-12.47,6.7-6.02-.11-10.4-5.11-11.88-6.81-9.7-11.1-11.19-33.74-5.44-87.81.83-7.8,2.41-21.46-4.95-25.6-3.25-1.83-8.37-1.87-12.01.1-13.5,7.29-2.15,39.68-7.78,91.78-.95,8.82-2.79,21.82-12.87,27.43-4.83,2.69-12.02,3.94-17.81,1.37-7.11-3.15-9.62-10.93-10.89-15.54Z"/>
    <path class="cls-2" d="M108.05,18.64c-22.82,2.62-41.45,20.29-39.59,24.41,1.28,2.83,12.67.3,15.5-.33,17.77-3.95,21.04-13.51,30.68-12.21,10.22,1.38,12.17,12.89,21.11,12.21,6.04-.46,12.31-6.26,11.88-10.89-.74-7.95-21.54-15.27-39.59-13.2Z"/>
    <path class="cls-2" d="M110.03,189.85c-2.38,3.5,13.1,12.12,16.82,32.66,1.62,8.93-.07,14.16,1.98,14.84,3.96,1.32,19.4-15.23,14.84-30.68-5.03-17.05-30.9-20.86-33.65-16.82Z"/>
    <path class="cls-2" d="M188.7,112.65c-4.08,1.02-10.6,3.26-10.39,4.95.31,2.54,15.15-.96,31.27,5.86,13.59,5.75,19.39,15.15,21.68,13.44,2.16-1.62-.65-11.76-7.42-18.31-12.1-11.69-31.62-6.82-35.13-5.94Z"/>
    <path class="cls-2" d="M221.86,210.63c-6.91,2.42-16.5,5.77-17.32,12.37-.57,4.64,3.28,10.17,6.93,10.39,2.37.14,4.91-3.04,9.9-9.4,5.1-6.51,5.83-8.8,9.9-11.88,3.48-2.63,6.12-3.35,5.94-3.96-.31-1.02-8.05-.08-15.34,2.47Z"/>
    <path class="cls-2" d="M340.61,217.06c-.14,1.78,6.2,4.35,18.88,9.49,10.67,4.33,12.66,4.38,13.78,3.37,2.6-2.34.74-10.49-3.96-14.84-9.1-8.44-28.37-2.17-28.7,1.98Z"/>
    <path class="cls-2" d="M332.7,20.12c-2.55.77-3.13,10.88,0,12.37,1.78.84,4.95-.99,5.94-3.46,1.76-4.38-3.82-9.54-5.94-8.91Z"/>
    <path class="cls-2" d="M335.92,34.5c-1.3,2.05.04,4.81,1.86,5.94.21.13,1.84,1.15,3.09.49,2.12-1.1,2.39-6.6-.12-7.92-1.44-.76-3.79-.14-4.82,1.48Z"/>
    <path class="cls-2" d="M441.23,196.77c-5.88,2.84-9.83,9.16-8.58,10.89,1.65,2.27,10.75-5.58,18.8-1.98,5.99,2.68,6.97,9.72,8.58,9.24,1.98-.6,3.45-12.15-3.3-17.48-6.26-4.95-14.98-.91-15.5-.66Z"/>
    <path class="cls-2" d="M381.85,20.62c-2.86,1.01-4.16,4.98-2.97,7.59,1.66,3.63,7.91,4.09,9.9,1.65,1.35-1.65.45-4.28.33-4.62-.95-2.77-4.18-5.7-7.26-4.62Z"/>
    <path class="cls-2" d="M393.92,27.16c-1.06.74-1.23,2.32-.52,3.19.4.49,1.06.73,1.65.66,1.42-.16,2.63-2.14,1.98-3.3-.49-.87-2.03-1.29-3.11-.55Z"/>
    <path class="cls-2" d="M390.62,31.94c-.54.69.46,3.06,1.78,3.02.9-.02,1.81-1.15,1.65-1.98-.24-1.25-2.87-1.75-3.43-1.04Z"/>
    <path class="cls-2" d="M458.88,104.24c-2.29,2.04-3.04,5.1-1.98,7.42,1.62,3.54,7.03,4.4,8.91,2.47,1.65-1.69.79-5.71-1.48-7.92-2.05-1.99-4.76-2-5.44-1.98Z"/>
    <path class="cls-2" d="M461.35,39.42c-1.4.32-2.48,2.1-2.65,3.68-.5,4.46,6.29,5.78,8.34,12.65,1.33,4.45-.26,8.12.74,8.41.94.28,3.18-2.71,3.96-5.94,2.1-8.71-6.32-19.73-10.39-18.8Z"/>
    <path class="cls-2" d="M561.31,149.02c-1.45,1.29,1.68,8.02,5.69,12.87,5.19,6.27,8.6,5.46,12.12,10.89,4.41,6.79,2.97,14.1,3.96,14.1.91,0,2.68-6.19,1.48-12.87-1.37-7.63-6.04-12.65-9.07-15.83-4.94-5.17-12.55-10.62-14.18-9.15Z"/>
    <path class="cls-2" d="M564.93,65.15c-2.38,1.13-3.2,5.86-1.65,9.24.3.67,1.99,4.1,5.28,4.29,3.11.18,5.89-2.64,6.27-5.28.68-4.81-6.58-9.82-9.9-8.25Z"/>
    <path class="cls-2" d="M568.89,86.92c-.3,1.65.3,3.91,1.65,4.29,1.51.42,3.12-1.74,3.3-1.98,1.65-2.21,1.97-5.82.66-6.6-1.4-.82-5.06,1.34-5.61,4.29Z"/>
    <path class="cls-2" d="M562.63,81.31c-.56.75.29,3.37,2.31,3.63,1.55.2,3.06-1.1,2.97-1.98-.14-1.42-4.51-2.68-5.28-1.65Z"/>
    <path class="cls-2" d="M511.82,181.43c-1.27,2.47,2.55,7.14,6.43,9.4,2.72,1.58,7.53,3.18,8.91,1.48,1.83-2.26-2.1-10.82-8.41-12.37-2.42-.59-5.98-.35-6.93,1.48Z"/>
    <path class="cls-2" d="M603.61,113.64c-1.41,1.07-.51,5.3,1.73,7.67.53.57,1.95,2.06,3.46,1.73,1.65-.35,2.66-2.69,2.47-4.45-.38-3.64-6-6.22-7.67-4.95Z"/>
    <path class="cls-2" d="M617.96,50.06c-1.84,1.14-1.51,4.7-1.48,4.95.4,3.9,3.57,4.33,4.95,8.91,1.05,3.47.01,5.83.99,6.19,1.19.43,3.51-2.83,4.7-5.2,1.06-2.12,2.32-4.61,1.73-7.42-1.1-5.31-8.18-9.09-10.89-7.42Z"/>
    <path class="cls-2" d="M637.26,187.87c3.79-.71,5.81,12.91,15.59,15.34,5.93,1.47,10.81-2.14,11.38-.99.68,1.37-5.49,7.91-13.61,8.66-.98.09-11,.85-15.34-6.68-3.82-6.63-.99-15.77,1.98-16.33Z"/>
    <path class="cls-2" d="M666.7,106.96c-7.14,1.06-13.19,4.7-12.87,5.69.29.89,5.18-1.76,12.62-.49,5.8.98,8.68,3.58,10.89,1.98,1.49-1.08,2.03-3.6,1.24-5.2-1.73-3.48-9.7-2.3-11.88-1.98Z"/>
    <path class="cls-2" d="M754.53,80.24c-4.09.1-8.85,1.18-8.91,2.47-.1,2.19,13.54.98,22.51,10.14,4.33,4.42,5.72,9.36,7.67,8.91,1.72-.4,2.8-4.76,1.98-8.41-1.88-8.33-13.74-13.34-23.26-13.11Z"/>
    <path class="cls-2" d="M708.02,78.01c-2.27-1.23-5.08.16-5.2,1.24-.19,1.67,5.97,4.49,7.17,3.22.72-.77,0-3.38-1.98-4.45Z"/>
    <path class="cls-4" d="M244.97,22.47c-7.01-.15-13.29,1.5-13.24,2.35.07,1.1,10.51-1.58,20.54,3.96,7.23,4,10.23,10.05,12.12,9.03,1.47-.79,1.3-5.28-.62-8.54-3.82-6.48-13.79-6.69-18.8-6.8Z"/>
    <path class="cls-4" d="M273.94,68.61c-.67.87.76,3.08,1.86,4.21.7.72,1.9,1.95,3.09,1.61,1.22-.34,1.94-2.16,1.61-3.46-.66-2.61-5.65-3.53-6.56-2.35Z"/>
    <path class="cls-3" d="M33.41,231.94c17.96,10.1,42.96,21.12,71.5,24.49,13.73,1.62,23.14.87,32.41-2.72,13.38-5.19,21.65-14.43,25.73-19.79.02,4.49-.43,20.6-12.37,32.41-11.33,11.21-26.07,11.67-34.64,11.93-43.09,1.34-76.35-38.55-82.63-46.32Z"/>
    <path class="cls-3" d="M61.14,140.86c-.13-5.07,0-20.26,8.08-31.17,4.04-5.46,7.97-7.01,8.85-7.33,4.39-1.63,8.29-.83,11.95-.13,13.2,2.53,19.8,3.79,23.76,3.85,12.42.18,21.97-7.18,26.38-10.57,9.56-7.36,14.17-16.2,16.16-20.78-5.21,4.91-15.73,13.32-31.17,16.33-16.81,3.27-30.22-1.65-38.76-4.78-13.29-4.88-22.73-11.92-28.37-16.82,5.44,12.17,5.48,21.43,4.45,27.71-1.84,11.3-7.85,17.31-6.76,28.7.63,6.57,3.31,11.72,5.44,15.01Z"/>
    <path class="cls-3" d="M196.85,152.73c2.79-.63,12.66-2.51,22.43,2.97,8.96,5.02,17.59,16.07,15.5,29.03-2,12.45-13.2,22.4-27.05,23.26,1.62-1.12,11.44-8.11,12.87-20.78,1.29-11.47-5.19-19.71-7.59-22.76-5.73-7.29-12.82-10.46-16.16-11.71Z"/>
    <path class="cls-3" d="M329.63,123.38c-29.39,29.89-33.23,64.17-20.19,77.3,10.07,10.15,29.35,6.79,35.63,5.44-2.17.09-13.31.34-21.28-7.92-6.87-7.12-7.18-16.21-7.35-21.22-.25-7.3,1.51-12.45,3.4-18.37,2.62-8.26,6.14-20.09,9.79-35.24Z"/>
    <path class="cls-3" d="M275.43,209.64c-.6,3.21-2.74,16.76,5.61,30.18,7.21,11.6,17.85,16.04,21.28,17.32-3.76,0-16.64-.4-24.41-9.07-1.7-1.89-2.8-3.78-3.08-4.28-4.09-7.18-3.47-14.37-3.03-19.47.3-3.45,1.13-8.66,3.63-14.68Z"/>
    <path class="cls-3" d="M394.75,141.36c-3.06-.53-17.34,30.31-4.98,52.12,1.51,2.66,4.66,8.05,10.89,10.56,12.2,4.9,27-4.99,26.39-7.26-.57-2.11-13.89,4.64-23.42-1.32-17.4-10.87-5.32-53.48-8.87-54.1Z"/>
    <path class="cls-3" d="M446.93,50.76c1.05-.26,2.03,7.91,7.82,13.23,4.37,4.02,9.98,5.03,13.86,5.28-1.72,1.06-5.32,2.87-9.57,2.14-8.33-1.42-11.35-11.28-11.88-13.2-.97-3.53-.94-7.29-.23-7.46Z"/>
    <path class="cls-3" d="M540.03,94.52c-.06-1.2-.69-11.41-7.59-15.17-9.64-5.25-25.66,5.26-26.06,15.83-.07,1.7.21,5.19,3.63,9.4,0-1.06.15-9.18,6.27-13.69,6.38-4.7,16.72-3.63,23.75,3.63Z"/>
    <path class="cls-3" d="M556.6,176.98c.7-.17,8.52,14.61,2.72,19.42-2.51,2.08-6.46,1.38-8.41.87,1.2-.72,3.12-2.06,4.58-4.33,4.41-6.86.57-15.82,1.11-15.96Z"/>
    <path class="cls-3" d="M592.67,65.26c-.13,1.02-1.14,9.99,5.69,16.7,7.62,7.49,17.91,5.23,18.56,5.07-3.11-.77-9.68-2.86-15.71-8.66-5.08-4.89-7.46-10.17-8.54-13.11Z"/>
    <path class="cls-3" d="M645.1,149.76c.2-10.84,9.07-19.65,19.79-19.79,10.55-.14,19.57,8.16,20.29,18.8-1.35-1.69-3.46-4.06-6.43-6.43-3.97-3.17-7.23-5.79-11.71-6.1-4.5-.32-7.91,1.84-12.04,4.45-4.78,3.02-7.96,6.55-9.9,9.07Z"/>
    <path class="cls-3" d="M638.44,233.28c5.11,1.82,12.8,3.86,22.27,3.83,13.97-.04,24.62-4.55,30.18-7.42-1.38,1.68-11,13.02-27.22,13.33-14.07.27-23.32-7.96-25.23-9.75Z"/>
    <path class="cls-3" d="M746.04,113.64c.43-.34,6.35-4.85,12.7-2.47,4.75,1.78,6.62,6.24,7.42,8.16,3.14,7.51-.17,14.72-.91,16.25.06-1.64.08-4-.16-6.85-.27-3.18-.41-4.76-1.05-6.36-1.8-4.51-6-6.67-7.12-7.24-4.78-2.46-9.35-1.78-10.89-1.48Z"/>
    <path class="cls-3" d="M703.32,233.27c3.61-.65,9.71-2.24,16-6.56,7.94-5.45,11.92-12.32,13.63-15.77-.05,1.52-.22,3.61-.68,6.06-.6,3.18-1.37,7.22-4.08,11.32-1.22,1.84-3.41,5.15-7.74,7.23-1.33.64-5.97,2.87-11.38,1.18-2.81-.87-4.72-2.46-5.75-3.46Z"/>
    <path class="cls-3" d="M770.29,230.54c3.38-.76,8.38-2.34,13.52-5.87,8.73-5.99,12.64-13.99,14.14-17.62-.41,2.79-1.22,6.7-2.97,11.13-1.03,2.61-2.17,5.44-4.45,8.54-2.66,3.61-6.39,8.66-11.69,8.6-4.2-.05-7.3-3.28-8.55-4.77Z"/>
  </g>
  <path class="cls-1" d="M233.67,43.47c-.07-.08,4.43-7.78,10.78-7.85,3.85-.04,7.81,2.73,9.48,6.6,1.96,4.54.55,10.1-3.57,13.53.45-1.41,1.44-5.23-.2-9.4-.58-1.48-1.98-5.03-5.55-6.35-2.57-.94-4.95-.25-5.85.03-3.36,1.04-5.06,3.48-5.1,3.43Z"/>
  <path class="cls-1" d="M253.77,81.56c.35.25,2.75-3.13,9.65-9.73,2.83-2.71,4.72-4.33,7.63-5.24,2.94-.92,5.49-.68,5.49-.94,0-.28-2.97-.94-6.1-.41-1.47.25-4.36.98-8.33,4.45-5.82,5.09-8.79,11.56-8.33,11.88Z"/>
  <path class="cls-1" d="M231.05,93.73c1.03,1.8,3.3,5.16,7.46,7.79,5.13,3.24,10.16,3.48,12.25,3.46-1.03.27-2.45.58-4.16.78-1.43.17-3.42.4-5.57.12-1.77-.23-5.07-.65-7.46-3.13-3.25-3.37-2.63-8.25-2.52-9.03Z"/>
</svg>